<svg xmlns="http://www.w3.org/2000/svg" viewBox="0 0 1200 900"><defs><linearGradient id="g" x1="0" x2="1"><stop stop-color="#171717"/><stop offset="1" stop-color="#2b2b27"/></linearGradient></defs><rect width="1200" height="900" rx="42" fill="#f0f0eb"/><rect x="55" y="55" width="1090" height="790" rx="34" fill="url(#g)"/><text x="100" y="135" fill="#aaa" font-family="Arial,sans-serif" font-size="24" letter-spacing="6">DIGITAL PRODUCTS BUNDLE / SOFTWARE</text><circle cx="104" cy="188" r="10" fill="#d7192e"/><text x="130" y="198" fill="#fff" font-family="Arial,sans-serif" font-size="34" font-weight="700">WA SENDER</text><text x="100" y="295" fill="#fff" font-family="Arial,sans-serif" font-size="78" font-weight="800">BULK</text><text x="100" y="365" fill="#d7192e" font-family="Arial,sans-serif" font-size="78" font-weight="800">WHATSAPP</text><text x="100" y="435" fill="#fff" font-family="Arial,sans-serif" font-size="78" font-weight="800">SENDER</text><g transform="translate(700 165)"><rect width="355" height="455" rx="24" fill="#fff"/><rect width="355" height="58" rx="24" fill="#151515"/><circle cx="28" cy="29" r="6" fill="#d7192e"/><circle cx="49" cy="29" r="6" fill="#ddd"/><circle cx="70" cy="29" r="6" fill="#777"/><rect x="25" y="88" width="305" height="42" rx="10" fill="#f0f0ed"/><rect x="25" y="151" width="210" height="18" rx="9" fill="#ddd"/><rect x="25" y="190" width="280" height="18" rx="9" fill="#eee"/><rect x="25" y="245" width="305" height="105" rx="15" fill="#f3f3ef"/><rect x="45" y="267" width="120" height="14" rx="7" fill="#222"/><rect x="45" y="295" width="240" height="12" rx="6" fill="#ccc"/><rect x="45" y="320" width="180" height="12" rx="6" fill="#ddd"/><rect x="25" y="380" width="145" height="45" rx="22" fill="#151515"/><text x="53" y="409" fill="#fff" font-family="Arial,sans-serif" font-size="15" font-weight="700">SEND CAMPAIGN</text></g><text x="100" y="735" fill="#aaa" font-family="Arial,sans-serif" font-size="22" letter-spacing="2">WINDOWS / EXCEL / CSV / MEDIA / AUTOMATION</text><rect x="100" y="770" width="170" height="8" rx="4" fill="#d7192e"/></svg>