<svg xmlns="http://www.w3.org/2000/svg" viewBox="0 0 1200 900"><defs><linearGradient id="bg" x1="0" y1="0" x2="1" y2="1"><stop stop-color="#11110f"/><stop offset="1" stop-color="#292923"/></linearGradient></defs><rect width="1200" height="900" rx="42" fill="#eeeee8"/><rect x="55" y="55" width="1090" height="790" rx="34" fill="url(#bg)"/><text x="100" y="135" fill="#aaa" font-family="Arial,sans-serif" font-size="24" letter-spacing="6">DIGITAL PRODUCTS BUNDLE / WEBSITE KIT</text><text x="100" y="255" fill="#fff" font-family="Arial,sans-serif" font-size="68" font-weight="800">BUILD A</text><text x="100" y="320" fill="#d7192e" font-family="Arial,sans-serif" font-size="68" font-weight="800">WEBSITE</text><text x="100" y="385" fill="#fff" font-family="Arial,sans-serif" font-size="68" font-weight="800">FASTER.</text><text x="100" y="435" fill="#aaa" font-family="Arial,sans-serif" font-size="20">Premium WordPress + Shopify resources</text><g transform="translate(650 145)"><rect x="0" y="0" width="410" height="300" rx="22" fill="#fff"/><rect x="20" y="20" width="370" height="42" rx="11" fill="#181817"/><circle cx="42" cy="41" r="5" fill="#d7192e"/><circle cx="60" cy="41" r="5" fill="#777"/><rect x="28" y="85" width="105" height="175" rx="12" fill="#e8e8e2"/><rect x="148" y="85" width="242" height="46" rx="10" fill="#d7192e"/><rect x="148" y="148" width="205" height="16" rx="8" fill="#222"/><rect x="148" y="178" width="160" height="12" rx="6" fill="#bbb"/><rect x="148" y="210" width="110" height="32" rx="16" fill="#181817"/><rect x="30" y="275" width="350" height="1" fill="#ddd"/></g><g transform="translate(650 485)"><rect width="120" height="175" rx="16" fill="#fff"/><rect x="14" y="14" width="92" height="55" rx="8" fill="#d7192e"/><rect x="14" y="82" width="70" height="10" rx="5" fill="#222"/><rect x="14" y="105" width="88" height="8" rx="4" fill="#ccc"/><rect x="14" y="130" width="58" height="25" rx="12" fill="#111"/></g><g transform="translate(790 485)"><rect width="120" height="175" rx="16" fill="#fff"/><rect x="14" y="14" width="92" height="55" rx="8" fill="#ecece7"/><rect x="14" y="82" width="78" height="10" rx="5" fill="#222"/><rect x="14" y="105" width="88" height="8" rx="4" fill="#ccc"/><rect x="14" y="130" width="58" height="25" rx="12" fill="#111"/></g><g transform="translate(930 485)"><rect width="120" height="175" rx="16" fill="#fff"/><rect x="14" y="14" width="92" height="55" rx="8" fill="#111"/><rect x="14" y="82" width="78" height="10" rx="5" fill="#222"/><rect x="14" y="105" width="88" height="8" rx="4" fill="#ccc"/><rect x="14" y="130" width="58" height="25" rx="12" fill="#d7192e"/></g><text x="100" y="735" fill="#aaa" font-family="Arial,sans-serif" font-size="20" letter-spacing="2">2000+ RESOURCES / WORDPRESS / SHOPIFY / TRAINING</text><rect x="100" y="770" width="210" height="8" rx="4" fill="#d7192e"/></svg>